<svg width="22" height="22" viewBox="0 0 22 22" fill="none" xmlns="http://www.w3.org/2000/svg">
<path d="M14.6663 18.3334V3.66671C14.6663 3.18048 14.4732 2.71416 14.1294 2.37034C13.7856 2.02653 13.3192 1.83337 12.833 1.83337H9.16634C8.68011 1.83337 8.2138 2.02653 7.86998 2.37034C7.52616 2.71416 7.33301 3.18048 7.33301 3.66671V18.3334M3.66634 5.50004H18.333C19.3455 5.50004 20.1663 6.32085 20.1663 7.33337V16.5C20.1663 17.5126 19.3455 18.3334 18.333 18.3334H3.66634C2.65382 18.3334 1.83301 17.5126 1.83301 16.5V7.33337C1.83301 6.32085 2.65382 5.50004 3.66634 5.50004Z" stroke="#D4D4D4" stroke-width="2" stroke-linecap="round" stroke-linejoin="round"/>
</svg>
