<svg width="22" height="22" viewBox="0 0 22 22" fill="none" xmlns="http://www.w3.org/2000/svg">
<g clip-path="url(#clip0_2670_321)">
<path d="M20.1663 11C20.1663 16.0627 16.0623 20.1667 10.9997 20.1667M20.1663 11C20.1663 5.93743 16.0623 1.83337 10.9997 1.83337M20.1663 11H1.83301M10.9997 20.1667C5.93706 20.1667 1.83301 16.0627 1.83301 11M10.9997 20.1667C8.64589 17.6952 7.33301 14.413 7.33301 11C7.33301 7.58705 8.64589 4.30485 10.9997 1.83337M10.9997 20.1667C13.3535 17.6952 14.6663 14.413 14.6663 11C14.6663 7.58705 13.3535 4.30485 10.9997 1.83337M1.83301 11C1.83301 5.93743 5.93706 1.83337 10.9997 1.83337" stroke="#D4D4D4" stroke-width="2" stroke-linecap="round" stroke-linejoin="round"/>
</g>
<defs>
<clipPath id="clip0_2670_321">
<rect width="22" height="22" fill="white"/>
</clipPath>
</defs>
</svg>
