<svg width="22" height="22" viewBox="0 0 22 22" fill="none" xmlns="http://www.w3.org/2000/svg">
<path d="M13.7497 11H9.16634M13.7497 7.33333H9.16634M17.4163 15.5833V4.58333C17.4163 4.0971 17.2232 3.63079 16.8794 3.28697C16.5356 2.94315 16.0692 2.75 15.583 2.75H3.66634M3.66634 2.75C4.15257 2.75 4.61889 2.94315 4.9627 3.28697C5.30652 3.63079 5.49967 4.0971 5.49967 4.58333V17.4167C5.49967 17.9029 5.69283 18.3692 6.03665 18.713C6.38046 19.0568 6.84678 19.25 7.33301 19.25M3.66634 2.75C3.18011 2.75 2.7138 2.94315 2.36998 3.28697C2.02616 3.63079 1.83301 4.0971 1.83301 4.58333V6.41667C1.83301 6.65978 1.92958 6.89294 2.10149 7.06485C2.2734 7.23676 2.50656 7.33333 2.74967 7.33333H5.49967M7.33301 19.25H18.333C18.8192 19.25 19.2856 19.0568 19.6294 18.713C19.9732 18.3692 20.1663 17.9029 20.1663 17.4167V16.5C20.1663 16.2569 20.0698 16.0237 19.8979 15.8518C19.7259 15.6799 19.4928 15.5833 19.2497 15.5833H10.083C9.83989 15.5833 9.60673 15.6799 9.43483 15.8518C9.26292 16.0237 9.16634 16.2569 9.16634 16.5V17.4167C9.16634 17.9029 8.97319 18.3692 8.62937 18.713C8.28555 19.0568 7.81924 19.25 7.33301 19.25Z" stroke="#D4D4D4" stroke-width="2" stroke-linecap="round" stroke-linejoin="round"/>
</svg>
