<svg width="32" height="32" viewBox="0 0 32 32" fill="none" xmlns="http://www.w3.org/2000/svg">
<rect width="32" height="32" rx="5" fill="url(#paint0_linear_388_97)"/>
<path d="M8.03107 23H4.73562L9.75692 8.45455H13.72L18.7342 23H15.4387L11.7953 11.7784H11.6816L8.03107 23ZM7.82511 17.2827H15.6092V19.6832H7.82511V17.2827ZM26.0993 12.0909V14.3636H19.3663V12.0909H26.0993ZM20.9075 23V11.3026C20.9075 10.5118 21.0614 9.85606 21.3691 9.33523C21.6816 8.81439 22.1078 8.42377 22.6475 8.16335C23.1873 7.90293 23.8005 7.77273 24.487 7.77273C24.9511 7.77273 25.3748 7.80824 25.7583 7.87926C26.1466 7.95028 26.4354 8.0142 26.6248 8.07102L26.085 10.3438C25.9667 10.3059 25.8199 10.2704 25.6447 10.2372C25.4743 10.2041 25.2991 10.1875 25.1191 10.1875C24.6741 10.1875 24.3639 10.2917 24.1887 10.5C24.0136 10.7036 23.926 10.9901 23.926 11.3594V23H20.9075Z" fill="white"/>
<defs>
<linearGradient id="paint0_linear_388_97" x1="-0.5" y1="0.5" x2="32" y2="32" gradientUnits="userSpaceOnUse">
<stop stop-color="#FFC233"/>
<stop offset="1" stop-color="#D59500"/>
</linearGradient>
</defs>
</svg>
