<svg width="28" height="28" viewBox="0 0 28 28" fill="none" xmlns="http://www.w3.org/2000/svg">
<path fill-rule="evenodd" clip-rule="evenodd" d="M8.97529 21.5737H2.33301V7H8.82234C11.3569 7 12.9082 8.52947 12.9082 10.7144C12.9082 12.5498 11.6846 13.7734 10.3518 14.0574C11.9031 14.2978 13.1923 15.8928 13.1923 17.6408C13.1923 19.9787 11.6409 21.5737 8.97529 21.5737ZM8.51645 13.3145C10.1552 13.3145 11.0291 12.3095 11.0291 10.9766C11.0291 9.66565 10.1552 8.61687 8.51645 8.61687H4.14652V13.3145H8.51645ZM8.60384 19.9568C10.3081 19.9568 11.3132 18.9954 11.3132 17.4441C11.3132 16.1113 10.3955 14.9314 8.60384 14.9314H4.14652V19.9568H8.60384ZM20.7722 21.8359C17.6477 21.8359 15.3972 19.5854 15.3972 16.2861C15.3972 13.2271 17.5821 10.7581 20.5974 10.7581C23.7874 10.7581 25.6665 13.249 25.6665 16.4172V16.8323H17.1233C17.2544 18.8206 18.6528 20.4812 20.9251 20.4812C22.1269 20.4812 23.3504 20.0005 24.1807 19.1484L24.9673 20.219C23.9185 21.2678 22.4983 21.8359 20.7722 21.8359ZM24.0496 15.6306C24.0278 14.0574 22.979 12.1128 20.5755 12.1128C18.325 12.1128 17.2107 14.0137 17.1233 15.6306H24.0496ZM17.6228 8.82806H23.6921V7.61419H17.6228V8.82806Z" fill="#171717"/>
</svg>
