<svg width="25" height="24" viewBox="0 0 25 24" fill="none" xmlns="http://www.w3.org/2000/svg">
<path fill-rule="evenodd" clip-rule="evenodd" d="M0 24C0.65165 21.8961 1.40695 19.8959 2.09747 17.831C-2.47987 9.82535 3.18483 0.812941 10.8574 0.0643029C18.1016 -0.642628 24.0411 4.5607 24.0591 11.662C24.078 19.1549 16.8109 25.4468 8.63655 22.8894C8.01994 22.6966 7.25699 22.068 6.53908 22.0258C5.53575 21.9667 4.22085 22.6871 3.20778 23.0128C2.09735 23.3701 1.13178 23.728 0 24ZM6.78587 19.8051C13.3869 23.8112 21.2911 19.3178 21.9616 12.7724C22.5685 6.84709 17.8373 1.57491 11.4743 2.03838C4.21 2.56737 -0.153503 11.2386 4.31821 17.5842C3.92236 18.669 3.55193 19.7791 3.20778 20.9155C4.41977 20.5646 5.53699 20.119 6.78587 19.8051Z" fill="currentColor"/>
<path fill-rule="evenodd" clip-rule="evenodd" d="M9.37691 6.10998C10.0713 7.56234 11.1453 9.71053 9.37691 10.6751C10.275 12.5737 11.7598 13.8855 13.6951 14.7467C14.3388 14.3209 14.7614 13.6742 15.2991 13.1428C16.4225 13.5822 17.4726 14.0948 18.3835 14.7467C18.4772 16.8692 16.6886 17.6541 15.1757 17.5844C11.9841 17.4375 7.59755 13.4053 6.53919 10.4283C5.91111 8.66192 6.63347 5.28336 9.37691 6.10998Z" fill="currentColor"/>
</svg>
