<svg width="100%" height="100%" viewBox="0 0 56 56" fill="currentColor" xmlns="http://www.w3.org/2000/svg">
<path fill-rule="evenodd" clip-rule="evenodd" d="M11.2929 20.8866C11.1165 21.8979 11.0246 22.9382 11.0246 24C11.0246 24.1471 11.0263 24.2938 11.0299 24.4401C14.6393 24.2393 17.6947 23.6363 20.2807 22.7598C17.2983 21.068 13.9872 20.7028 11.2929 20.8866ZM12.5025 16.8455C16.1747 16.8394 20.6984 17.7279 24.5629 20.8482C25.8342 20.1207 26.9432 19.3176 27.9105 18.4701C26.1181 17.1615 23.895 16.0836 21.5489 15.345C18.792 14.4771 16.0427 14.1333 13.835 14.3378C13.3279 15.1334 12.8815 15.9714 12.5025 16.8455ZM17.2477 10.387C19.0676 10.565 20.942 10.9604 22.75 11.5296C25.5562 12.413 28.3459 13.76 30.6423 15.5184C31.2567 14.6955 31.7816 13.8542 32.2283 13.0138C30.7282 11.6482 28.563 10.3982 26.232 9.57275C23.4831 8.59934 20.9336 8.36585 19.2937 8.85442C18.575 9.31713 17.8914 9.8296 17.2477 10.387ZM28.1588 6.02045C30.1657 6.79065 32.1397 7.85306 33.7998 9.12221C34.035 8.30575 34.2054 7.52219 34.3233 6.79258C32.6481 6.27734 30.8688 6 29.0246 6C28.7343 6 28.4457 6.00687 28.1588 6.02045ZM12.4487 31.0291C12.0918 30.1886 11.797 29.3153 11.57 28.4151C21.8879 27.7724 28.5265 24.051 32.6482 19.3869C35.8146 15.8039 37.3934 11.7808 38.0848 8.44308C39.1149 9.04431 40.0799 9.74492 40.9667 10.5318C40.6391 13.6464 38.8857 18.6031 34.8255 22.8716C33.3835 24.3875 31.6438 25.8229 29.5629 27.0552C29.2464 27.1701 28.953 27.3375 28.694 27.5468C24.6041 29.7562 19.2858 31.1885 12.4487 31.0291ZM28.1425 32.2504C24.4195 33.8461 19.997 34.8737 14.793 35.0224C15.3529 35.7443 15.9665 36.4224 16.6278 37.0508C21.1445 37.4739 25.317 36.727 29.029 35.2749L28.1425 32.2504ZM30.1579 39.1264C27.8923 39.9846 25.4681 40.6156 22.909 40.9345C24.8183 41.6241 26.8775 42 29.0246 42C29.6823 42 30.3312 41.9648 30.9698 41.8963L30.1579 39.1264ZM32.1096 45.7851C31.1008 45.9268 30.0708 46 29.0246 46C23.7108 46 18.8371 44.1161 15.0348 40.9798C14.7445 42.5936 13.945 43.7956 12.9009 44.6851C11.8164 45.6089 10.4895 46.1652 9.53018 46.5674L9.43284 46.6082C8.29102 47.0876 7.7442 47.3507 7.45559 47.6393C7.33234 47.7626 7.24088 47.8648 7.17341 47.9477C7.41441 48.0846 7.78607 48.2446 8.32508 48.4043C10.8309 49.1466 15.4847 49.4758 21.9646 49.2266L22.1184 53.2236C15.5982 53.4744 10.3728 53.1827 7.18897 52.2396C6.37414 51.9982 5.60853 51.6907 4.96137 51.2846C4.32078 50.8825 3.67503 50.3066 3.30428 49.4838C2.4556 47.6004 3.53961 45.8984 4.6272 44.8109C5.53704 43.9011 6.83135 43.3602 7.73469 42.9827L7.8844 42.9201C8.96587 42.466 9.74116 42.1221 10.307 41.6401C10.7653 41.2497 11.094 40.7612 11.1463 39.8523C11.2052 38.8307 10.9138 37.1903 9.74323 34.6023C8.01049 31.4579 7.02458 27.8441 7.02458 24C7.02458 11.8497 16.8743 2 29.0246 2C41.1748 2 51.0246 11.8497 51.0246 24C51.0246 27.2794 50.3058 30.3949 49.0167 33.194L49.0426 33.2031C51.1839 33.9567 51.7449 36.7234 50.0662 38.2515L47.6067 40.4902L52.3187 45.6668C53.434 46.892 53.3449 48.7894 52.1197 49.9048L49.1616 52.5973C47.9364 53.7126 46.039 53.6235 44.9237 52.3983L40.2116 47.2217L37.697 49.5107C36.0577 51.0028 33.4221 50.2631 32.7986 48.136L32.1096 45.7851ZM45.2234 31.859C46.1268 30.0008 46.7198 27.9635 46.9346 25.8128C45.7997 27.518 44.3687 29.2745 42.6761 30.9625L45.2234 31.859ZM38.4285 29.4676C40.6971 27.458 42.517 25.2926 43.8119 23.2799C45.2369 21.065 45.9126 19.2138 46.0168 18.0468C45.5647 16.7562 44.9697 15.5328 44.2508 14.3955C43.2304 17.9286 41.1512 22.0252 37.7237 25.6284C36.865 26.5311 35.9233 27.4014 34.8945 28.2238L38.4285 29.4676ZM6.9945 48.2312C6.99173 48.2318 6.99462 48.2161 7.01148 48.1824C7.0057 48.2138 6.99727 48.2306 6.9945 48.2312ZM36.1872 45.4759L32.0835 31.4751L46.1355 36.4204L44.1746 38.2053C42.9494 39.3206 42.8602 41.218 43.9755 42.4433L48.6876 47.6199L47.2085 48.9662L42.4965 43.7896C41.3812 42.5643 39.4838 42.4752 38.2585 43.5905L36.1872 45.4759Z" fill="currentColor"/>
</svg>
