<svg width="96" height="96" viewBox="0 0 96 96" fill="none" xmlns="http://www.w3.org/2000/svg">
<rect x="13.25" y="14" width="75.5" height="76.25" rx="11.5" fill="#4338CA" stroke="#171717"/>
<path d="M85.5 87.8906L62.5312 66.3281" stroke="#171717"/>
<path d="M80.3438 89.7656L57.375 68.2031" stroke="#171717"/>
<path d="M73.7812 90.2344L50.8125 68.6719" stroke="#171717"/>
<path d="M66.2812 90.2344L43.3125 68.6719" stroke="#171717"/>
<path d="M59.7188 90.2344L36.75 68.6719" stroke="#171717"/>
<path d="M53.1562 90.2344L30.1875 68.6719" stroke="#171717"/>
<path d="M46.5938 90.2344L23.625 68.6719" stroke="#171717"/>
<path d="M40.0312 90.2344L17.0625 68.6719" stroke="#171717"/>
<path d="M32.5312 90.2344L9.5625 68.6719" stroke="#171717"/>
<path d="M25.0312 90.2344L10.0312 74.2969M15.0938 86.0156L8.625 77.5781" stroke="#171717"/>
<path d="M87.8438 83.2031L64.875 61.6406" stroke="#171717"/>
<path d="M88.7812 77.5781L65.8125 56.0156" stroke="#171717"/>
<path d="M88.7812 50.3906L65.8125 28.8281" stroke="#171717"/>
<path d="M88.7812 71.0156L65.8125 49.4531" stroke="#171717"/>
<path d="M88.7812 43.8281L65.8125 22.2656" stroke="#171717"/>
<path d="M88.7812 64.4531L65.8125 42.8906" stroke="#171717"/>
<path d="M88.7812 37.2656L65.8125 15.7031" stroke="#171717"/>
<path d="M88.7812 56.9531L65.8125 35.3906" stroke="#171717"/>
<path d="M88.7812 29.7656L65.8125 8.20312" stroke="#171717"/>
<path d="M88.7812 23.2031L76.5938 13.3594" stroke="#171717"/>
<path d="M87.9375 20.8594L84.5625 13.3594" stroke="#171717"/>
<rect x="7.25" y="5.75" width="77.75" height="77.75" rx="11.5" fill="#818CF8"/>
<rect x="7.25" y="5.75" width="77.75" height="77.75" rx="11.5" stroke="#171717"/>
<path d="M31.5209 15.625L33.6118 33.4419C34.1656 38.1605 37.9629 41.8381 42.6967 42.2404L70.75 44.625L42.6967 47.0096C37.9629 47.4119 34.1656 51.0895 33.6118 55.8081L31.5209 73.625L29.3291 54.9488C28.8224 50.6307 25.5835 47.1348 21.3166 46.3003L12.75 44.625L21.3166 42.9497C25.5835 42.1152 28.8224 38.6193 29.3291 34.3012L31.5209 15.625Z" fill="#FCD34D" stroke="#171717" stroke-linejoin="round"/>
</svg>
